<?xml version='1.0' encoding='utf-8'?>
<svg xmlns="http://www.w3.org/2000/svg" version="1.1" id="Layer_1" x="0px" y="0px" width="2100px" height="1650px" viewBox="0 0 2100 1650" enable-background="new 0 0 2100 1650"> <rect x="2008.693" y="1558.333" fill="#FF0F0B" width="91.307" height="91.667"/> <rect x="1917.393" y="1558.333" fill="#FF1809" width="91.301" height="91.667"/> <rect x="1826.083" y="1558.333" fill="#FF2207" width="91.31" height="91.667"/> <rect x="1734.782" y="1558.333" fill="#FF2D05" width="91.301" height="91.667"/> <rect x="1643.479" y="1558.333" fill="#FF3803" width="91.304" height="91.667"/> <rect x="1552.178" y="1558.333" fill="#FF4504" width="91.301" height="91.667"/> <rect x="1460.868" y="1558.333" fill="#FF5A0B" width="91.31" height="91.667"/> <rect x="1369.567" y="1558.333" fill="#FF7319" width="91.301" height="91.667"/> <rect x="1278.264" y="1558.333" fill="#FF8C26" width="91.304" height="91.667"/> <rect x="1186.957" y="1558.333" fill="#FFA534" width="91.307" height="91.667"/> <rect x="1095.653" y="1558.333" fill="#FFBA40" width="91.304" height="91.667"/> <rect x="1004.348" y="1558.333" fill="#FCC849" width="91.306" height="91.667"/> <rect x="913.042" y="1558.333" fill="#F2D050" width="91.305" height="91.667"/> <rect x="821.739" y="1558.333" fill="#E5D657" width="91.304" height="91.667"/> <rect x="730.434" y="1558.333" fill="#D9DA5F" width="91.305" height="91.667"/> <rect x="639.131" y="1558.333" fill="#CADC67" width="91.303" height="91.667"/> <rect x="547.827" y="1558.333" fill="#BCDE6F" width="91.304" height="91.667"/> <rect x="456.522" y="1558.333" fill="#AADE76" width="91.305" height="91.667"/> <rect x="365.218" y="1558.333" fill="#90DE7B" width="91.304" height="91.667"/> <rect x="273.913" y="1558.333" fill="#6CDD7D" width="91.305" height="91.667"/> <rect x="182.609" y="1558.333" fill="#2ADA7C" width="91.304" height="91.667"/> <rect x="91.304" y="1558.333" fill="#01D67C" width="91.305" height="91.667"/> <rect y="1558.333" fill="#00D27B" width="91.304" height="91.667"/> <rect x="2008.693" y="1466.666" fill="#FF1B0F" width="91.307" height="91.667"/> <rect x="1917.393" y="1466.666" fill="#FF270B" width="91.301" height="91.667"/> <rect x="1826.083" y="1466.666" fill="#FF3606" width="91.31" height="91.667"/> <rect x="1734.782" y="1466.666" fill="#FF4302" width="91.301" height="91.667"/> <rect x="1643.479" y="1466.666" fill="#FF5000" width="91.304" height="91.667"/> <rect x="1552.178" y="1466.666" fill="#FF5F00" width="91.301" height="91.667"/> <rect x="1460.868" y="1466.666" fill="#FF730C" width="91.31" height="91.667"/> <rect x="1369.567" y="1466.666" fill="#FF8922" width="91.301" height="91.667"/> <rect x="1278.264" y="1466.666" fill="#FFA037" width="91.304" height="91.667"/> <rect x="1186.957" y="1466.666" fill="#FFB74D" width="91.307" height="91.667"/> <rect x="1095.653" y="1466.666" fill="#FFCA5F" width="91.304" height="91.667"/> <rect x="1004.348" y="1466.666" fill="#FFD76B" width="91.306" height="91.667"/> <rect x="913.042" y="1466.666" fill="#FADF76" width="91.305" height="91.667"/> <rect x="821.739" y="1466.666" fill="#F2E57F" width="91.304" height="91.667"/> <rect x="730.434" y="1466.666" fill="#EBE98A" width="91.305" height="91.667"/> <rect x="639.131" y="1466.666" fill="#E3EB93" width="91.303" height="91.667"/> <rect x="547.827" y="1466.666" fill="#DAED9C" width="91.304" height="91.667"/> <rect x="456.522" y="1466.666" fill="#CFEDA2" width="91.305" height="91.667"/> <rect x="365.218" y="1466.666" fill="#BFEDA6" width="91.304" height="91.667"/> <rect x="273.913" y="1466.666" fill="#A5EBA7" width="91.305" height="91.667"/> <rect x="182.609" y="1466.666" fill="#7AE7A3" width="91.304" height="91.667"/> <rect x="91.304" y="1466.666" fill="#2DE2A0" width="91.305" height="91.667"/> <rect y="1466.666" fill="#00DB9C" width="91.304" height="91.667"/> <rect x="2008.693" y="1374.999" fill="#FF2412" width="91.307" height="91.667"/> <rect x="1917.393" y="1374.999" fill="#FF320D" width="91.301" height="91.667"/> <rect x="1826.083" y="1374.999" fill="#FF4207" width="91.31" height="91.667"/> <rect x="1734.782" y="1374.999" fill="#FF5101" width="91.301" height="91.667"/> <rect x="1643.479" y="1374.999" fill="#FF6000" width="91.304" height="91.667"/> <rect x="1552.178" y="1374.999" fill="#FF7000" width="91.301" height="91.667"/> <rect x="1460.868" y="1374.999" fill="#FF840C" width="91.31" height="91.667"/> <rect x="1369.567" y="1374.999" fill="#FF9929" width="91.301" height="91.667"/> <rect x="1278.264" y="1374.999" fill="#FFAF42" width="91.304" height="91.667"/> <rect x="1186.957" y="1374.999" fill="#FFC35C" width="91.307" height="91.667"/> <rect x="1095.653" y="1374.999" fill="#FFD571" width="91.304" height="91.667"/> <rect x="1004.348" y="1374.999" fill="#FFE282" width="91.306" height="91.667"/> <rect x="913.042" y="1374.999" fill="#FEEA8F" width="91.305" height="91.667"/> <rect x="821.739" y="1374.999" fill="#FAEF9B" width="91.304" height="91.667"/> <rect x="730.434" y="1374.999" fill="#F7F3A7" width="91.305" height="91.667"/> <rect x="639.131" y="1374.999" fill="#F3F5B2" width="91.303" height="91.667"/> <rect x="547.827" y="1374.999" fill="#EEF7BB" width="91.304" height="91.667"/> <rect x="456.522" y="1374.999" fill="#E8F7C0" width="91.305" height="91.667"/> <rect x="365.218" y="1374.999" fill="#DDF7C3" width="91.304" height="91.667"/> <rect x="273.913" y="1374.999" fill="#C9F5C2" width="91.305" height="91.667"/> <rect x="182.609" y="1374.999" fill="#A6F1BE" width="91.304" height="91.667"/> <rect x="91.304" y="1374.999" fill="#70EBBA" width="91.305" height="91.667"/> <rect y="1374.999" fill="#0FE3B4" width="91.304" height="91.667"/> <rect x="2008.693" y="1283.334" fill="#FF2918" width="91.307" height="91.664"/> <rect x="1917.393" y="1283.334" fill="#FF3911" width="91.301" height="91.664"/> <rect x="1826.083" y="1283.334" fill="#FF490A" width="91.31" height="91.664"/> <rect x="1734.782" y="1283.333" fill="#FF5903" width="91.301" height="91.664"/> <rect x="1643.479" y="1283.332" fill="#FF6900" width="91.304" height="91.667"/> <rect x="1552.178" y="1283.332" fill="#FF7B00" width="91.301" height="91.667"/> <rect x="1460.868" y="1283.332" fill="#FF8E0E" width="91.31" height="91.667"/> <rect x="1369.567" y="1283.332" fill="#FFA32C" width="91.301" height="91.667"/> <rect x="1278.264" y="1283.332" fill="#FFB747" width="91.304" height="91.667"/> <rect x="1186.957" y="1283.332" fill="#FFCB63" width="91.307" height="91.667"/> <rect x="1095.653" y="1283.332" fill="#FFDB7B" width="91.304" height="91.667"/> <rect x="1004.348" y="1283.332" fill="#FFE88E" width="91.306" height="91.667"/> <rect x="913.042" y="1283.332" fill="#FFEF9D" width="91.305" height="91.667"/> <rect x="821.739" y="1283.332" fill="#FFF5AC" width="91.304" height="91.667"/> <rect x="730.434" y="1283.332" fill="#FEF9B8" width="91.305" height="91.667"/> <rect x="639.131" y="1283.332" fill="#FBFBC4" width="91.303" height="91.667"/> <rect x="547.827" y="1283.332" fill="#F8FCCC" width="91.304" height="91.667"/> <rect x="456.522" y="1283.332" fill="#F5FDD1" width="91.305" height="91.667"/> <rect x="365.218" y="1283.332" fill="#EEFDD3" width="91.304" height="91.667"/> <rect x="273.913" y="1283.332" fill="#DFFBD2" width="91.305" height="91.667"/> <rect x="182.609" y="1283.332" fill="#C1F7CF" width="91.304" height="91.667"/> <rect x="91.304" y="1283.332" fill="#92F1CB" width="91.305" height="91.667"/> <rect y="1283.332" fill="#33E9C5" width="91.304" height="91.667"/> <rect x="2008.693" y="1191.665" fill="#FF2C1E" width="91.307" height="91.67"/> <rect x="1917.393" y="1191.665" fill="#FF3B17" width="91.301" height="91.67"/> <rect x="1826.083" y="1191.665" fill="#FF4B10" width="91.31" height="91.67"/> <rect x="1734.782" y="1191.665" fill="#FF5B08" width="91.301" height="91.67"/> <rect x="1643.479" y="1191.665" fill="#FF6C02" width="91.304" height="91.667"/> <rect x="1552.178" y="1191.665" fill="#FF7D01" width="91.301" height="91.667"/> <rect x="1460.868" y="1191.665" fill="#FF9113" width="91.31" height="91.667"/> <rect x="1369.567" y="1191.665" fill="#FFA52F" width="91.301" height="91.667"/> <rect x="1278.264" y="1191.665" fill="#FFB949" width="91.304" height="91.667"/> <rect x="1186.957" y="1191.665" fill="#FFCC65" width="91.307" height="91.667"/> <rect x="1095.653" y="1191.665" fill="#FFDD7E" width="91.304" height="91.667"/> <rect x="1004.348" y="1191.665" fill="#FFE991" width="91.306" height="91.667"/> <rect x="913.042" y="1191.665" fill="#FFF0A0" width="91.305" height="91.667"/> <rect x="821.739" y="1191.665" fill="#FFF6AF" width="91.304" height="91.667"/> <rect x="730.434" y="1191.665" fill="#FEF9BC" width="91.305" height="91.667"/> <rect x="639.131" y="1191.665" fill="#FBFCC8" width="91.303" height="91.667"/> <rect x="547.827" y="1191.665" fill="#F9FDD0" width="91.304" height="91.667"/> <rect x="456.522" y="1191.665" fill="#F5FDD5" width="91.305" height="91.667"/> <rect x="365.218" y="1191.665" fill="#F0FED7" width="91.304" height="91.667"/> <rect x="273.913" y="1191.665" fill="#E3FCD6" width="91.305" height="91.667"/> <rect x="182.609" y="1191.665" fill="#C6F8D4" width="91.304" height="91.667"/> <rect x="91.304" y="1191.665" fill="#98F2D1" width="91.305" height="91.667"/> <rect y="1191.665" fill="#3CEACB" width="91.304" height="91.667"/> <rect x="2008.693" y="1100" fill="#FF2D26" width="91.307" height="91.664"/> <rect x="1917.393" y="1100" fill="#FF3C1F" width="91.301" height="91.664"/> <rect x="1826.083" y="1100" fill="#FF4C18" width="91.31" height="91.664"/> <rect x="1734.782" y="1099.999" fill="#FF5B12" width="91.301" height="91.664"/> <rect x="1643.479" y="1099.998" fill="#FF6C0A" width="91.304" height="91.667"/> <rect x="1552.178" y="1099.998" fill="#FF7D0A" width="91.301" height="91.667"/> <rect x="1460.868" y="1099.998" fill="#FF8F1A" width="91.31" height="91.667"/> <rect x="1369.567" y="1099.998" fill="#FFA332" width="91.301" height="91.667"/> <rect x="1278.264" y="1099.998" fill="#FFB649" width="91.304" height="91.667"/> <rect x="1186.957" y="1099.998" fill="#FFC963" width="91.307" height="91.667"/> <rect x="1095.653" y="1099.998" fill="#FFD879" width="91.304" height="91.667"/> <rect x="1004.348" y="1099.998" fill="#FFE48D" width="91.306" height="91.667"/> <rect x="913.042" y="1099.998" fill="#FDEC9C" width="91.305" height="91.667"/> <rect x="821.739" y="1099.998" fill="#FAF1AC" width="91.304" height="91.667"/> <rect x="730.434" y="1099.998" fill="#F8F5BA" width="91.305" height="91.667"/> <rect x="639.131" y="1099.998" fill="#F5F7C6" width="91.303" height="91.667"/> <rect x="547.827" y="1099.998" fill="#F2F9CF" width="91.304" height="91.667"/> <rect x="456.522" y="1099.998" fill="#ECF9D4" width="91.305" height="91.667"/> <rect x="365.218" y="1099.998" fill="#E5F9D7" width="91.304" height="91.667"/> <rect x="273.913" y="1099.998" fill="#D4F8D7" width="91.305" height="91.667"/> <rect x="182.609" y="1099.998" fill="#B5F4D5" width="91.304" height="91.667"/> <rect x="91.304" y="1099.998" fill="#86EFD1" width="91.305" height="91.667"/> <rect y="1099.998" fill="#25E7CD" width="91.304" height="91.667"/> <rect x="2008.693" y="1008.333" fill="#FE2D2E" width="91.307" height="91.667"/> <rect x="1917.393" y="1008.333" fill="#FF3C26" width="91.301" height="91.667"/> <rect x="1826.083" y="1008.333" fill="#FF4C1F" width="91.31" height="91.667"/> <rect x="1734.782" y="1008.333" fill="#FF5C19" width="91.301" height="91.667"/> <rect x="1643.479" y="1008.333" fill="#FF6B14" width="91.304" height="91.664"/> <rect x="1552.178" y="1008.333" fill="#FF7B14" width="91.301" height="91.664"/> <rect x="1460.868" y="1008.333" fill="#FF8D20" width="91.31" height="91.664"/> <rect x="1369.567" y="1008.333" fill="#FF9F34" width="91.301" height="91.664"/> <rect x="1278.264" y="1008.333" fill="#FFB148" width="91.304" height="91.664"/> <rect x="1186.957" y="1008.333" fill="#FFC25F" width="91.307" height="91.664"/> <rect x="1095.653" y="1008.333" fill="#FED073" width="91.304" height="91.664"/> <rect x="1004.348" y="1008.333" fill="#F9DC86" width="91.306" height="91.664"/> <rect x="913.042" y="1008.333" fill="#F4E495" width="91.305" height="91.664"/> <rect x="821.739" y="1008.333" fill="#F1EAA5" width="91.304" height="91.664"/> <rect x="730.434" y="1008.333" fill="#EEEEB5" width="91.305" height="91.664"/> <rect x="639.131" y="1008.333" fill="#EAF0C2" width="91.303" height="91.664"/> <rect x="547.827" y="1008.333" fill="#E5F1CE" width="91.304" height="91.664"/> <rect x="456.522" y="1008.333" fill="#DDF2D4" width="91.305" height="91.664"/> <rect x="365.218" y="1008.333" fill="#D0F2D7" width="91.304" height="91.664"/> <rect x="273.913" y="1008.333" fill="#BBF0D6" width="91.305" height="91.664"/> <rect x="182.609" y="1008.333" fill="#98EDD4" width="91.304" height="91.664"/> <rect x="91.304" y="1008.333" fill="#60E9D1" width="91.305" height="91.664"/> <rect y="1008.333" fill="#06E2CD" width="91.304" height="91.664"/> <rect x="2008.693" y="916.667" fill="#FD2D35" width="91.307" height="91.667"/> <rect x="1917.393" y="916.667" fill="#FF3B2E" width="91.301" height="91.667"/> <rect x="1826.083" y="916.667" fill="#FF4B28" width="91.31" height="91.667"/> <rect x="1734.782" y="916.667" fill="#FF5922" width="91.301" height="91.667"/> <rect x="1643.479" y="916.667" fill="#FF681E" width="91.304" height="91.667"/> <rect x="1552.178" y="916.667" fill="#FF781E" width="91.301" height="91.667"/> <rect x="1460.868" y="916.667" fill="#FF8928" width="91.31" height="91.667"/> <rect x="1369.567" y="916.667" fill="#FF9A38" width="91.301" height="91.667"/> <rect x="1278.264" y="916.667" fill="#FFAA48" width="91.304" height="91.667"/> <rect x="1186.957" y="916.667" fill="#FFBA5B" width="91.307" height="91.667"/> <rect x="1095.653" y="916.667" fill="#FAC76D" width="91.304" height="91.667"/> <rect x="1004.348" y="916.667" fill="#F2D27E" width="91.306" height="91.667"/> <rect x="913.042" y="916.667" fill="#EBDA8E" width="91.305" height="91.667"/> <rect x="821.739" y="916.667" fill="#E6E09F" width="91.304" height="91.667"/> <rect x="730.434" y="916.667" fill="#E2E4B0" width="91.305" height="91.667"/> <rect x="639.131" y="916.667" fill="#DDE6BF" width="91.303" height="91.667"/> <rect x="547.827" y="916.667" fill="#D6E8CC" width="91.304" height="91.667"/> <rect x="456.522" y="916.667" fill="#CAE9D4" width="91.305" height="91.667"/> <rect x="365.218" y="916.667" fill="#B8E9D6" width="91.304" height="91.667"/> <rect x="273.913" y="916.667" fill="#9DE7D5" width="91.305" height="91.667"/> <rect x="182.609" y="916.667" fill="#73E5D4" width="91.304" height="91.667"/> <rect x="91.304" y="916.667" fill="#26E1D1" width="91.305" height="91.667"/> <rect y="916.667" fill="#00DCCD" width="91.304" height="91.667"/> <rect x="2008.693" y="824.996" fill="#FA2C3C" width="91.307" height="91.671"/> <rect x="1917.393" y="824.996" fill="#FF3A35" width="91.301" height="91.671"/> <rect x="1826.083" y="824.996" fill="#FF492F" width="91.31" height="91.671"/> <rect x="1734.782" y="824.996" fill="#FF572A" width="91.301" height="91.671"/> <rect x="1643.479" y="824.996" fill="#FF6527" width="91.304" height="91.671"/> <rect x="1552.178" y="824.996" fill="#FF7427" width="91.301" height="91.671"/> <rect x="1460.868" y="824.996" fill="#FF842F" width="91.31" height="91.671"/> <rect x="1369.567" y="824.996" fill="#FF943B" width="91.301" height="91.671"/> <rect x="1278.264" y="824.996" fill="#FFA349" width="91.304" height="91.671"/> <rect x="1186.957" y="824.996" fill="#FFB25A" width="91.307" height="91.671"/> <rect x="1095.653" y="824.996" fill="#F8BE6A" width="91.304" height="91.671"/> <rect x="1004.348" y="824.996" fill="#EEC97A" width="91.306" height="91.671"/> <rect x="913.042" y="824.996" fill="#E6D089" width="91.305" height="91.671"/> <rect x="821.739" y="824.996" fill="#DFD69B" width="91.304" height="91.671"/> <rect x="730.434" y="824.996" fill="#D9DAAC" width="91.305" height="91.671"/> <rect x="639.131" y="824.996" fill="#D1DDBD" width="91.303" height="91.671"/> <rect x="547.827" y="824.996" fill="#C8DECB" width="91.304" height="91.671"/> <rect x="456.522" y="824.996" fill="#B9DFD4" width="91.305" height="91.671"/> <rect x="365.218" y="824.996" fill="#A2DFD6" width="91.304" height="91.671"/> <rect x="273.913" y="824.996" fill="#82DED6" width="91.305" height="91.671"/> <rect x="182.609" y="824.996" fill="#50DDD4" width="91.304" height="91.671"/> <rect x="91.304" y="824.996" fill="#05DAD1" width="91.305" height="91.671"/> <rect y="824.996" fill="#00D6CC" width="91.304" height="91.671"/> <rect x="2008.693" y="733.333" fill="#F62943" width="91.307" height="91.662"/> <rect x="1917.393" y="733.333" fill="#FF363C" width="91.301" height="91.662"/> <rect x="1826.083" y="733.333" fill="#FF4337" width="91.31" height="91.662"/> <rect x="1734.782" y="733.333" fill="#FF5133" width="91.301" height="91.662"/> <rect x="1643.479" y="733.333" fill="#FF5E31" width="91.304" height="91.662"/> <rect x="1552.178" y="733.333" fill="#FF6D32" width="91.301" height="91.662"/> <rect x="1460.868" y="733.333" fill="#FF7C37" width="91.31" height="91.662"/> <rect x="1369.567" y="733.333" fill="#FF8C41" width="91.301" height="91.662"/> <rect x="1278.264" y="733.333" fill="#FF9B4E" width="91.304" height="91.662"/> <rect x="1186.957" y="733.333" fill="#FFAA5D" width="91.307" height="91.662"/> <rect x="1095.653" y="733.333" fill="#F9B66B" width="91.304" height="91.662"/> <rect x="1004.348" y="733.333" fill="#EFC17A" width="91.306" height="91.662"/> <rect x="913.042" y="733.333" fill="#E7C88A" width="91.305" height="91.662"/> <rect x="821.739" y="733.333" fill="#DECE9B" width="91.304" height="91.662"/> <rect x="730.434" y="733.333" fill="#D6D2AD" width="91.305" height="91.662"/> <rect x="639.131" y="733.333" fill="#CAD5BD" width="91.303" height="91.662"/> <rect x="547.827" y="733.333" fill="#BDD6CC" width="91.304" height="91.662"/> <rect x="456.522" y="733.333" fill="#ACD7D5" width="91.305" height="91.662"/> <rect x="365.218" y="733.333" fill="#92D7D7" width="91.304" height="91.662"/> <rect x="273.913" y="733.333" fill="#70D7D6" width="91.305" height="91.662"/> <rect x="182.609" y="733.333" fill="#31D6D5" width="91.304" height="91.662"/> <rect x="91.304" y="733.333" fill="#00D5D2" width="91.305" height="91.662"/> <rect y="733.333" fill="#00D2CD" width="91.304" height="91.662"/> <rect x="2008.696" y="641.664" fill="#EF2349" width="91.304" height="91.67"/> <rect x="1917.394" y="641.664" fill="#FE2E43" width="91.301" height="91.67"/> <rect x="1826.084" y="641.664" fill="#FF393F" width="91.31" height="91.67"/> <rect x="1734.784" y="641.664" fill="#FF453C" width="91.301" height="91.67"/> <rect x="1643.477" y="641.664" fill="#FF523A" width="91.307" height="91.67"/> <rect x="1552.178" y="641.664" fill="#FF603C" width="91.301" height="91.67"/> <rect x="1460.868" y="641.664" fill="#FF7040" width="91.31" height="91.67"/> <rect x="1369.567" y="641.664" fill="#FF8249" width="91.301" height="91.67"/> <rect x="1278.264" y="641.664" fill="#FF9155" width="91.304" height="91.67"/> <rect x="1186.957" y="641.664" fill="#FFA362" width="91.307" height="91.67"/> <rect x="1095.653" y="641.664" fill="#FBB06F" width="91.304" height="91.67"/> <rect x="1004.348" y="641.664" fill="#F2BB7E" width="91.306" height="91.67"/> <rect x="913.042" y="641.664" fill="#EAC28D" width="91.305" height="91.67"/> <rect x="821.739" y="641.664" fill="#E1C89E" width="91.304" height="91.67"/> <rect x="730.434" y="641.664" fill="#D5CCB0" width="91.305" height="91.67"/> <rect x="639.131" y="641.664" fill="#C7CFC0" width="91.303" height="91.67"/> <rect x="547.827" y="641.664" fill="#B8D0CF" width="91.304" height="91.67"/> <rect x="456.522" y="641.664" fill="#A3D1D8" width="91.305" height="91.67"/> <rect x="365.218" y="641.664" fill="#88D2DA" width="91.304" height="91.67"/> <rect x="273.913" y="641.664" fill="#64D2D9" width="91.305" height="91.67"/> <rect x="182.609" y="641.664" fill="#21D2D8" width="91.304" height="91.67"/> <rect x="91.304" y="641.664" fill="#00D1D4" width="91.305" height="91.67"/> <rect y="641.664" fill="#00CFCF" width="91.304" height="91.67"/> <rect x="2008.696" y="550" fill="#E91A4F" width="91.304" height="91.664"/> <rect x="1917.396" y="550" fill="#FC224B" width="91.301" height="91.664"/> <rect x="1826.086" y="550" fill="#FF2B47" width="91.31" height="91.664"/> <rect x="1734.785" y="550" fill="#FF3645" width="91.301" height="91.664"/> <rect x="1643.479" y="550" fill="#FF4143" width="91.307" height="91.664"/> <rect x="1552.178" y="550" fill="#FF5045" width="91.301" height="91.664"/> <rect x="1460.868" y="550" fill="#FF6149" width="91.31" height="91.664"/> <rect x="1369.567" y="550" fill="#FF7452" width="91.301" height="91.664"/> <rect x="1278.264" y="550" fill="#FF875B" width="91.304" height="91.664"/> <rect x="1186.957" y="550" fill="#FF9968" width="91.307" height="91.664"/> <rect x="1095.653" y="550" fill="#FDA974" width="91.304" height="91.664"/> <rect x="1004.348" y="550" fill="#F6B581" width="91.306" height="91.664"/> <rect x="913.042" y="550" fill="#EEBC90" width="91.305" height="91.664"/> <rect x="821.739" y="550" fill="#E4C2A1" width="91.304" height="91.664"/> <rect x="730.434" y="550" fill="#D7C6B4" width="91.305" height="91.664"/> <rect x="639.131" y="550" fill="#C6C9C5" width="91.303" height="91.664"/> <rect x="547.827" y="550" fill="#B4CAD4" width="91.304" height="91.664"/> <rect x="456.522" y="550" fill="#9ECBDD" width="91.305" height="91.664"/> <rect x="365.218" y="550" fill="#80CCE0" width="91.304" height="91.664"/> <rect x="273.913" y="550" fill="#5ACDDF" width="91.305" height="91.664"/> <rect x="182.609" y="550" fill="#12CDDC" width="91.304" height="91.664"/> <rect x="91.304" y="550" fill="#00CCD8" width="91.305" height="91.664"/> <rect y="550" fill="#00CBD1" width="91.304" height="91.664"/> <rect x="2008.696" y="458.332" fill="#E01155" width="91.304" height="91.667"/> <rect x="1917.396" y="458.332" fill="#F61752" width="91.301" height="91.667"/> <rect x="1826.086" y="458.332" fill="#FF1E4F" width="91.31" height="91.667"/> <rect x="1734.785" y="458.332" fill="#FF264D" width="91.301" height="91.667"/> <rect x="1643.479" y="458.332" fill="#FF314D" width="91.307" height="91.667"/> <rect x="1552.178" y="458.332" fill="#FF404E" width="91.301" height="91.667"/> <rect x="1460.868" y="458.332" fill="#FF5152" width="91.31" height="91.667"/> <rect x="1369.567" y="458.332" fill="#FF665A" width="91.301" height="91.667"/> <rect x="1278.264" y="458.332" fill="#FF7B62" width="91.304" height="91.667"/> <rect x="1186.957" y="458.332" fill="#FF8F6D" width="91.307" height="91.667"/> <rect x="1095.653" y="458.332" fill="#FF9F7A" width="91.304" height="91.667"/> <rect x="1004.348" y="458.332" fill="#FAAE86" width="91.306" height="91.667"/> <rect x="913.042" y="458.332" fill="#F3B595" width="91.305" height="91.667"/> <rect x="821.739" y="458.332" fill="#E8BAA6" width="91.304" height="91.667"/> <rect x="730.434" y="458.332" fill="#D9BEB8" width="91.305" height="91.667"/> <rect x="639.131" y="458.332" fill="#C6C0CA" width="91.303" height="91.667"/> <rect x="547.827" y="458.332" fill="#B0C2D9" width="91.304" height="91.667"/> <rect x="456.522" y="458.332" fill="#97C3E2" width="91.305" height="91.667"/> <rect x="365.218" y="458.332" fill="#78C4E5" width="91.304" height="91.667"/> <rect x="273.913" y="458.332" fill="#4FC5E3" width="91.305" height="91.667"/> <rect x="182.609" y="458.332" fill="#09C6E0" width="91.304" height="91.667"/> <rect x="91.304" y="458.332" fill="#00C6DC" width="91.305" height="91.667"/> <rect y="458.332" fill="#00C5D5" width="91.304" height="91.667"/> <rect x="2008.696" y="366.665" fill="#D50C5A" width="91.304" height="91.667"/> <rect x="1917.396" y="366.665" fill="#EC1058" width="91.301" height="91.667"/> <rect x="1826.086" y="366.665" fill="#FB1657" width="91.31" height="91.667"/> <rect x="1734.785" y="366.665" fill="#FF1E55" width="91.301" height="91.667"/> <rect x="1643.479" y="366.665" fill="#FF2755" width="91.307" height="91.667"/> <rect x="1552.178" y="366.665" fill="#FF3556" width="91.301" height="91.667"/> <rect x="1460.868" y="366.665" fill="#FF475A" width="91.31" height="91.667"/> <rect x="1369.567" y="366.665" fill="#FF5B60" width="91.301" height="91.667"/> <rect x="1278.264" y="366.665" fill="#FF7068" width="91.304" height="91.667"/> <rect x="1186.957" y="366.665" fill="#FF8472" width="91.307" height="91.667"/> <rect x="1095.653" y="366.665" fill="#FF947D" width="91.304" height="91.667"/> <rect x="1004.348" y="366.665" fill="#FEA189" width="91.306" height="91.667"/> <rect x="913.042" y="366.665" fill="#F8AA97" width="91.305" height="91.667"/> <rect x="821.739" y="366.665" fill="#EAAFA8" width="91.304" height="91.667"/> <rect x="730.434" y="366.665" fill="#D9B2BB" width="91.305" height="91.667"/> <rect x="639.131" y="366.665" fill="#C2B4CC" width="91.303" height="91.667"/> <rect x="547.827" y="366.665" fill="#AAB5DB" width="91.304" height="91.667"/> <rect x="456.522" y="366.665" fill="#8FB6E5" width="91.305" height="91.667"/> <rect x="365.218" y="366.665" fill="#6FB8E8" width="91.304" height="91.667"/> <rect x="273.913" y="366.665" fill="#44BAE6" width="91.305" height="91.667"/> <rect x="182.609" y="366.665" fill="#04BBE3" width="91.304" height="91.667"/> <rect x="91.304" y="366.665" fill="#00BCDE" width="91.305" height="91.667"/> <rect y="366.665" fill="#00BCD6" width="91.304" height="91.667"/> <rect x="2008.696" y="274.998" fill="#C30C60" width="91.304" height="91.667"/> <rect x="1917.396" y="274.998" fill="#DA0F5F" width="91.301" height="91.667"/> <rect x="1826.086" y="274.998" fill="#EB145D" width="91.31" height="91.667"/> <rect x="1734.785" y="274.998" fill="#F61B5D" width="91.301" height="91.667"/> <rect x="1643.479" y="274.998" fill="#FB245C" width="91.307" height="91.667"/> <rect x="1552.178" y="274.998" fill="#FC305E" width="91.301" height="91.667"/> <rect x="1460.868" y="274.998" fill="#FD4061" width="91.31" height="91.667"/> <rect x="1369.567" y="274.998" fill="#FD5166" width="91.301" height="91.667"/> <rect x="1278.264" y="274.998" fill="#FE646D" width="91.304" height="91.667"/> <rect x="1186.957" y="274.998" fill="#FE7676" width="91.307" height="91.667"/> <rect x="1095.653" y="274.998" fill="#FE8480" width="91.304" height="91.667"/> <rect x="1004.348" y="274.998" fill="#FC918A" width="91.306" height="91.667"/> <rect x="913.042" y="274.998" fill="#F69897" width="91.305" height="91.667"/> <rect x="821.739" y="274.998" fill="#E79DA8" width="91.304" height="91.667"/> <rect x="730.434" y="274.998" fill="#D3A0BA" width="91.305" height="91.667"/> <rect x="639.131" y="274.998" fill="#B9A1CB" width="91.303" height="91.667"/> <rect x="547.827" y="274.998" fill="#9EA3DA" width="91.304" height="91.667"/> <rect x="456.522" y="274.998" fill="#82A4E3" width="91.305" height="91.667"/> <rect x="365.218" y="274.998" fill="#62A6E6" width="91.304" height="91.667"/> <rect x="273.913" y="274.998" fill="#3AA8E4" width="91.305" height="91.667"/> <rect x="182.609" y="274.998" fill="#01ABE1" width="91.304" height="91.667"/> <rect x="91.304" y="274.998" fill="#00ADDC" width="91.305" height="91.667"/> <rect y="274.998" fill="#00AFD4" width="91.304" height="91.667"/> <rect x="2008.696" y="183.334" fill="#AB0F66" width="91.304" height="91.664"/> <rect x="1917.396" y="183.334" fill="#C11265" width="91.301" height="91.664"/> <rect x="1826.086" y="183.334" fill="#D11764" width="91.31" height="91.664"/> <rect x="1734.785" y="183.334" fill="#DD1C64" width="91.301" height="91.664"/> <rect x="1643.479" y="183.334" fill="#E22364" width="91.307" height="91.664"/> <rect x="1552.178" y="183.334" fill="#E52D65" width="91.301" height="91.664"/> <rect x="1460.868" y="183.334" fill="#E73A67" width="91.31" height="91.664"/> <rect x="1369.567" y="183.334" fill="#E9486C" width="91.301" height="91.664"/> <rect x="1278.264" y="183.334" fill="#EC5772" width="91.304" height="91.664"/> <rect x="1186.957" y="183.334" fill="#ED6679" width="91.307" height="91.664"/> <rect x="1095.653" y="183.334" fill="#ED7281" width="91.304" height="91.664"/> <rect x="1004.348" y="183.334" fill="#EC7C8A" width="91.306" height="91.664"/> <rect x="913.042" y="183.334" fill="#E58295" width="91.305" height="91.664"/> <rect x="821.739" y="183.334" fill="#D586A4" width="91.304" height="91.664"/> <rect x="730.434" y="183.334" fill="#C089B4" width="91.305" height="91.664"/> <rect x="639.131" y="183.334" fill="#A78AC3" width="91.303" height="91.664"/> <rect x="547.827" y="183.334" fill="#8C8BD2" width="91.304" height="91.664"/> <rect x="456.522" y="183.334" fill="#718CDB" width="91.305" height="91.664"/> <rect x="365.218" y="183.334" fill="#558EDD" width="91.304" height="91.664"/> <rect x="273.913" y="183.334" fill="#3091DB" width="91.305" height="91.664"/> <rect x="182.609" y="183.334" fill="#0094D8" width="91.304" height="91.664"/> <rect x="91.304" y="183.334" fill="#0097D3" width="91.305" height="91.664"/> <rect y="183.334" fill="#009ACC" width="91.304" height="91.664"/> <rect x="2008.696" y="91.664" fill="#8D146C" width="91.304" height="91.67"/> <rect x="1917.396" y="91.664" fill="#9F176B" width="91.301" height="91.67"/> <rect x="1826.086" y="91.664" fill="#AD1B6B" width="91.31" height="91.67"/> <rect x="1734.785" y="91.664" fill="#B81F6A" width="91.301" height="91.67"/> <rect x="1643.479" y="91.664" fill="#BE236A" width="91.307" height="91.67"/> <rect x="1552.178" y="91.664" fill="#C12A6B" width="91.301" height="91.67"/> <rect x="1460.868" y="91.664" fill="#C2336E" width="91.31" height="91.67"/> <rect x="1369.567" y="91.664" fill="#C53E71" width="91.301" height="91.67"/> <rect x="1278.264" y="91.664" fill="#C84976" width="91.304" height="91.67"/> <rect x="1186.957" y="91.664" fill="#CA547C" width="91.307" height="91.67"/> <rect x="1095.653" y="91.664" fill="#CA5C81" width="91.304" height="91.67"/> <rect x="1004.348" y="91.664" fill="#C96388" width="91.306" height="91.67"/> <rect x="913.042" y="91.664" fill="#C26790" width="91.305" height="91.67"/> <rect x="821.739" y="91.664" fill="#B36A9C" width="91.304" height="91.67"/> <rect x="730.434" y="91.664" fill="#A06CA9" width="91.305" height="91.67"/> <rect x="639.131" y="91.664" fill="#896DB7" width="91.303" height="91.67"/> <rect x="547.827" y="91.664" fill="#716EC2" width="91.304" height="91.67"/> <rect x="456.522" y="91.664" fill="#5B70C9" width="91.305" height="91.67"/> <rect x="365.218" y="91.664" fill="#4472CC" width="91.304" height="91.67"/> <rect x="273.913" y="91.664" fill="#2874CA" width="91.305" height="91.67"/> <rect x="182.609" y="91.664" fill="#0177C7" width="91.304" height="91.67"/> <rect x="91.304" y="91.664" fill="#007BC3" width="91.305" height="91.67"/> <rect y="91.664" fill="#007EBD" width="91.304" height="91.67"/> <rect x="2008.696" fill="#6B1B74" width="91.304" height="91.664"/> <rect x="1917.396" fill="#781D73" width="91.301" height="91.664"/> <rect x="1826.086" fill="#832072" width="91.31" height="91.664"/> <rect x="1734.785" fill="#8C2271" width="91.301" height="91.664"/> <rect x="1643.479" fill="#902471" width="91.307" height="91.664"/> <rect x="1552.178" fill="#922772" width="91.301" height="91.664"/> <rect x="1460.868" fill="#932C73" width="91.31" height="91.664"/> <rect x="1369.567" fill="#943276" width="91.301" height="91.664"/> <rect x="1278.264" fill="#963879" width="91.304" height="91.664"/> <rect x="1186.957" fill="#973E7D" width="91.307" height="91.664"/> <rect x="1095.653" fill="#974281" width="91.304" height="91.664"/> <rect x="1004.348" fill="#954684" width="91.306" height="91.664"/> <rect x="913.042" fill="#8F4889" width="91.305" height="91.664"/> <rect x="821.739" fill="#834991" width="91.304" height="91.664"/> <rect x="730.434" fill="#754B9B" width="91.305" height="91.664"/> <rect x="639.131" fill="#644CA4" width="91.303" height="91.664"/> <rect x="547.827" fill="#534EAB" width="91.304" height="91.664"/> <rect x="456.522" fill="#434FB0" width="91.305" height="91.664"/> <rect x="365.218" fill="#3351B3" width="91.304" height="91.664"/> <rect x="273.913" fill="#1F53B1" width="91.305" height="91.664"/> <rect x="182.609" fill="#0256AF" width="91.304" height="91.664"/> <rect x="91.304" fill="#0059AC" width="91.305" height="91.664"/> <rect fill="#005DA9" width="91.304" height="91.664"/> </svg>